<?xml version="1.0" encoding="utf-8"?>
<!-- Generator: Adobe Illustrator 27.2.0, SVG Export Plug-In . SVG Version: 6.00 Build 0)  -->
<svg version="1.1" id="Layer_1" xmlns="http://www.w3.org/2000/svg" xmlns:xlink="http://www.w3.org/1999/xlink" x="0px" y="0px"
	 viewBox="0 0 512 512" style="enable-background:new 0 0 512 512;" xml:space="preserve">
<style type="text/css">
	.st0{fill-rule:evenodd;clip-rule:evenodd;fill:#C8D6E5;}
	.st1{fill:#C8D6E5;}
	.st2{fill-rule:evenodd;clip-rule:evenodd;fill:#A4B8CE;}
	.st3{fill:#A4B8CE;}
	.st4{fill-rule:evenodd;clip-rule:evenodd;fill:#FEC957;}
	.st5{fill:#FEC957;}
	.st6{fill-rule:evenodd;clip-rule:evenodd;fill:#FF8D8D;}
	.st7{fill:#FF8D8D;}
	.st8{fill-rule:evenodd;clip-rule:evenodd;fill:#4A95F2;}
	.st9{fill:#4A95F2;}
	.st10{fill-rule:evenodd;clip-rule:evenodd;fill:#FFFFFF;}
	.st11{fill:#FFFFFF;}
</style>
<g>
	<path class="st0" d="M427.18,108.33V451.7H59.27c-8.02,0-15.15,3.85-19.62,9.81h-4.9V34.72c0-13.57,10.99-24.5,24.55-24.5h365.43
		h51.51v98.11H427.18z"/>
	<path class="st1" d="M427.18,108.33h-10.22v333.16l-357.68,0c-11.34,0-21.49,5.47-27.79,13.89l8.17,6.14V451.3h-4.9v10.22h10.22
		V34.72c0-7.92,6.38-14.28,14.33-14.28h365.43h41.29v77.67h-38.83c-2.69,0-5.32,1.09-7.23,2.99c-1.9,1.9-2.99,4.54-2.99,7.23H427.18
		v10.22h49.05c2.69,0,5.32-1.09,7.23-2.99c1.9-1.9,2.99-4.54,2.99-7.23V10.22c0-2.69-1.09-5.32-2.99-7.23
		c-1.9-1.9-4.54-2.99-7.23-2.99h-51.51H59.29c-9.55-0.01-18.31,3.88-24.57,10.15c-6.28,6.25-10.2,15.01-10.19,24.58v426.79
		c0,2.69,1.09,5.32,2.99,7.23c1.9,1.9,4.54,2.99,7.23,2.99h4.9c3.21,0,6.24-1.52,8.17-4.08c2.65-3.5,6.75-5.73,11.45-5.73h367.9
		c2.69,0,5.32-1.09,7.23-2.99c1.9-1.9,2.99-4.54,2.99-7.23V108.33H427.18v10.22V108.33z"/>
	<path class="st2" d="M327,333.98c-2.71-45.24-61.33-38.66-70.05-62.11c-0.73-8.03-2.42-19.33-2.42-19.33l13.64-24.99
		c0,0,6.95-4.01,8.27-15.02c0.71-5.91-2.26-10.35-3.99-11.4c4.65-13.99,13.99-62.55-40.07-63.37
		c-44.09,0.81-50.03,26.16-40.36,63.37c-1.72,1.05-4.4,5.48-3.69,11.4c1.32,11.01,9.1,15.02,9.1,15.02l12.3,23.87
		c0,0-0.93,12.42-1.66,20.45c-8.73,23.46-67.59,16.87-70.31,62.11H327z"/>
	<path class="st3" d="M327,333.98l10.2-0.61c-0.4-6.76-1.89-12.88-4.31-18.26c-4.22-9.47-11.17-16.3-18.51-21.21
		c-11.05-7.37-23.21-11.23-32.54-15.18c-4.66-1.93-8.57-3.86-11.13-5.7c-1.29-0.91-2.23-1.78-2.89-2.55
		c-0.66-0.78-1.04-1.44-1.31-2.16l-9.58,3.56l10.18-0.92c-0.78-8.52-2.48-19.83-2.49-19.93l-10.11,1.52l8.97,4.9l13.64-24.99
		l-8.97-4.9l5.11,8.85c0.81-0.47,3.58-2.19,6.51-5.85c2.93-3.63,5.92-9.32,6.79-16.8c0.12-1.02,0.18-2.03,0.18-3.01
		c0-4.25-1.07-7.95-2.55-10.91c-0.75-1.49-1.6-2.81-2.59-4.01c-1.02-1.21-2.07-2.3-3.87-3.43l-5.3,8.74l9.7,3.22
		c1.86-5.66,4.19-15.16,4.21-26.17c0-5.36-0.57-11.08-2.2-16.83c-2.4-8.59-7.48-17.41-16.24-23.71
		c-8.73-6.33-20.52-9.88-35.39-10.09l-0.34,0c-8.87,0.17-16.64,1.23-23.49,3.33c-5.14,1.58-9.76,3.76-13.78,6.59
		c-6.05,4.23-10.58,10.02-13.29,16.47c-2.74,6.46-3.8,13.47-3.8,20.73c0.01,9.13,1.65,18.78,4.31,29.02l9.89-2.57l-5.31-8.73
		c-1.88,1.18-2.96,2.35-3.96,3.59c-1.45,1.86-2.56,3.93-3.4,6.37c-0.83,2.42-1.36,5.2-1.36,8.23c0,1.02,0.06,2.08,0.19,3.16
		c0.91,7.75,4.31,13.6,7.55,17.2c3.25,3.64,6.23,5.27,7.02,5.68l4.68-9.08l-9.08,4.68l12.3,23.87l9.08-4.68l-10.19-0.76
		c0,0.01-0.23,3.08-0.55,7.17c-0.32,4.09-0.73,9.18-1.09,13.11l10.18,0.92l-9.58-3.56c-0.41,1.07-1.08,2.1-2.58,3.43
		c-2.57,2.33-7.72,4.96-14.15,7.53c-9.64,3.98-21.91,7.96-32.88,15.7c-5.47,3.89-10.62,8.86-14.48,15.3
		c-3.88,6.42-6.33,14.22-6.84,23.09c-0.17,2.8,0.84,5.58,2.76,7.62c1.92,2.04,4.63,3.21,7.44,3.21H327c2.81,0,5.51-1.17,7.44-3.21
		c1.92-2.04,2.93-4.82,2.76-7.62L327,333.98v-10.22H137.76v10.22l10.2,0.61c0.28-4.55,1.22-8.11,2.56-11.12
		c2.36-5.21,6.1-9.09,11.32-12.62c7.79-5.29,18.68-8.99,29.13-13.28c5.23-2.19,10.39-4.55,15.14-7.89c2.37-1.68,4.64-3.63,6.65-5.99
		c2.01-2.35,3.74-5.14,4.9-8.27c0.3-0.8,0.52-1.79,0.6-2.64c0.74-8.17,1.67-20.58,1.67-20.6c0.14-1.89-0.24-3.76-1.11-5.44
		l-12.3-23.87c-0.98-1.9-2.5-3.42-4.4-4.4l-2.18,4.22l2.48-4.06l-0.3-0.16l-2.18,4.22l2.48-4.06l-0.55-0.42
		c-0.51-0.43-1.24-1.17-1.88-2.25c-0.64-1.09-1.24-2.5-1.51-4.66l-0.04-0.72c0-0.88,0.22-1.58,0.37-1.91l0.07-0.14l-1.42-0.86
		l1.22,1.11l0.2-0.24l-1.42-0.86l1.22,1.11l-4.46-4.04l3.11,5.12c0.85-0.53,1.16-0.88,1.35-1.08l-4.46-4.04l3.11,5.12
		c3.85-2.34,5.71-6.94,4.58-11.3c-2.39-9.15-3.66-17.28-3.65-23.88c0-4.69,0.63-8.56,1.74-11.62c0.84-2.3,1.91-4.17,3.32-5.82
		c2.11-2.45,5.04-4.57,9.76-6.28c4.69-1.69,11.13-2.83,19.5-2.98l-0.19-10.22l-0.15,10.22c7.93,0.12,13.83,1.39,18.18,3.18
		c3.27,1.35,5.7,2.96,7.63,4.77c2.88,2.7,4.78,5.91,6.06,9.72c1.27,3.79,1.83,8.16,1.82,12.53c0.03,7.95-1.88,15.9-3.17,19.73
		c-1.51,4.54,0.31,9.48,4.4,11.96l2.56-4.22l-3.85,3.18c0.11,0.1,0.26,0.39,1.29,1.04l2.56-4.22l-3.85,3.18l0.41-0.34l-0.44,0.3
		l0.03,0.04l0.41-0.34l-0.44,0.3c0.1,0.11,0.52,0.99,0.5,1.95l-0.03,0.57c-0.44,3.53-1.59,5.35-2.46,6.48
		c-0.44,0.55-0.83,0.9-1.01,1.05l-0.1,0.08l-0.01,0.01l2.8,4.02l-2.45-4.23l-0.35,0.22l2.8,4.02l-2.45-4.23
		c-1.64,0.95-2.95,2.29-3.86,3.95l-13.64,24.99c-1.07,1.96-1.47,4.21-1.14,6.41c0,0,0.1,0.67,0.27,1.83
		c0.5,3.46,1.58,11.28,2.08,16.91c0.08,0.85,0.3,1.84,0.6,2.64c1.77,4.79,4.83,8.68,8.23,11.65c5.99,5.21,12.92,8.23,19.87,11.11
		c10.43,4.21,21.15,8.01,28.6,13.41c3.74,2.68,6.66,5.63,8.78,9.18c2.11,3.56,3.58,7.83,3.95,13.81L327,333.98v-10.22V333.98z"/>
	<rect x="428.2" y="107.31" class="st4" width="49.05" height="98.11"/>
	<polygon class="st5" points="428.2,107.31 428.2,117.52 467.03,117.52 467.03,195.19 438.42,195.19 438.42,107.31 428.2,107.31 
		428.2,117.52 428.2,107.31 417.98,107.31 417.98,215.63 487.47,215.63 487.47,97.09 417.98,97.09 417.98,107.31 	"/>
	<rect x="428.2" y="204.39" class="st6" width="49.05" height="98.11"/>
	<polygon class="st7" points="428.2,204.39 428.2,214.61 467.03,214.61 467.03,292.28 438.42,292.28 438.42,204.39 428.2,204.39 
		428.2,214.61 428.2,204.39 417.98,204.39 417.98,312.72 487.47,312.72 487.47,194.17 417.98,194.17 417.98,204.39 	"/>
	<rect x="428.2" y="306.59" class="st8" width="49.05" height="98.11"/>
	<polygon class="st9" points="428.2,306.59 428.2,316.81 467.03,316.81 467.03,394.48 438.42,394.48 438.42,306.59 428.2,306.59 
		428.2,316.81 428.2,306.59 417.98,306.59 417.98,414.91 487.47,414.91 487.47,296.37 417.98,296.37 417.98,306.59 	"/>
	<path class="st2" d="M59.27,451.7c-13.55,0-24.53,10.98-24.53,24.53c0,13.55,10.98,24.53,24.53,24.53h367.9V451.7H59.27z"/>
	<path class="st3" d="M59.27,451.7v-10.22c-19.19,0.01-34.74,15.55-34.75,34.75c0.01,19.19,15.55,34.74,34.75,34.75h367.9
		c2.69,0,5.32-1.09,7.23-2.99c1.9-1.9,2.99-4.54,2.99-7.23V451.7c0-2.69-1.09-5.32-2.99-7.23c-1.9-1.9-4.54-2.99-7.23-2.99H59.27
		V451.7v10.22h357.68v28.61H59.27c-3.98-0.01-7.5-1.59-10.12-4.19c-2.61-2.62-4.19-6.13-4.19-10.12c0.01-3.98,1.59-7.5,4.19-10.12
		c2.62-2.61,6.13-4.19,10.12-4.19V451.7z"/>
	<rect x="428.2" y="403.67" class="st10" width="49.05" height="98.11"/>
	<polygon class="st11" points="428.2,403.67 428.2,413.89 467.03,413.89 467.03,491.56 438.42,491.56 438.42,403.67 428.2,403.67 
		428.2,413.89 428.2,403.67 417.98,403.67 417.98,512 487.47,512 487.47,393.45 417.98,393.45 417.98,403.67 	"/>
</g>
</svg>
